<mxfile host="app.diagrams.net" modified="2024-05-09T04:01:21.606Z" agent="Mozilla/5.0 (X11; Linux x86_64) AppleWebKit/537.36 (KHTML, like Gecko) Chrome/125.0.0.0 Safari/537.36" etag="MMrIE6K75X78Bb7rVOjS" version="24.3.1" type="github">
  <diagram name="Page-1" id="mwLM45IjcOHnAed-Ezqx">
    <mxGraphModel dx="1092" dy="601" grid="1" gridSize="10" guides="1" tooltips="1" connect="1" arrows="1" fold="1" page="1" pageScale="1" pageWidth="827" pageHeight="1169" math="0" shadow="0">
      <root>
        <mxCell id="0" />
        <mxCell id="1" parent="0" />
        <mxCell id="DJ29jIEHS1oXv2itQa2j-53" value="" style="rounded=1;whiteSpace=wrap;html=1;" parent="1" vertex="1">
          <mxGeometry x="507" y="430" width="283" height="230" as="geometry" />
        </mxCell>
        <mxCell id="DJ29jIEHS1oXv2itQa2j-46" value="" style="rounded=1;whiteSpace=wrap;html=1;" parent="1" vertex="1">
          <mxGeometry x="31" y="430" width="466" height="230" as="geometry" />
        </mxCell>
        <mxCell id="DJ29jIEHS1oXv2itQa2j-1" value="Speaker R" style="strokeColor=#dddddd;shadow=1;strokeWidth=1;rounded=1;absoluteArcSize=1;arcSize=2;labelPosition=center;verticalLabelPosition=middle;align=center;verticalAlign=bottom;spacingLeft=0;fontColor=#999999;fontSize=12;whiteSpace=wrap;spacingBottom=2;html=1;" parent="1" vertex="1">
          <mxGeometry x="610" y="257.5" width="70" height="85" as="geometry" />
        </mxCell>
        <mxCell id="DJ29jIEHS1oXv2itQa2j-2" value="" style="sketch=0;dashed=0;connectable=0;html=1;fillColor=#757575;strokeColor=none;shape=mxgraph.gcp2.speaker;part=1;" parent="DJ29jIEHS1oXv2itQa2j-1" vertex="1">
          <mxGeometry x="0.5" width="35" height="50" relative="1" as="geometry">
            <mxPoint x="-17.5" y="10" as="offset" />
          </mxGeometry>
        </mxCell>
        <mxCell id="DJ29jIEHS1oXv2itQa2j-3" value="Speaker L" style="strokeColor=#dddddd;shadow=1;strokeWidth=1;rounded=1;absoluteArcSize=1;arcSize=2;labelPosition=center;verticalLabelPosition=middle;align=center;verticalAlign=bottom;spacingLeft=0;fontColor=#999999;fontSize=12;whiteSpace=wrap;spacingBottom=2;html=1;" parent="1" vertex="1">
          <mxGeometry x="154" y="257.5" width="70" height="85" as="geometry" />
        </mxCell>
        <mxCell id="DJ29jIEHS1oXv2itQa2j-4" value="" style="sketch=0;dashed=0;connectable=0;html=1;fillColor=#757575;strokeColor=none;shape=mxgraph.gcp2.speaker;part=1;" parent="DJ29jIEHS1oXv2itQa2j-3" vertex="1">
          <mxGeometry x="0.5" width="35" height="50" relative="1" as="geometry">
            <mxPoint x="-17.5" y="10" as="offset" />
          </mxGeometry>
        </mxCell>
        <mxCell id="DJ29jIEHS1oXv2itQa2j-6" style="edgeStyle=orthogonalEdgeStyle;rounded=0;orthogonalLoop=1;jettySize=auto;html=1;exitX=0;exitY=0.5;exitDx=0;exitDy=0;entryX=1;entryY=0.5;entryDx=0;entryDy=0;" parent="1" source="DJ29jIEHS1oXv2itQa2j-5" target="DJ29jIEHS1oXv2itQa2j-3" edge="1">
          <mxGeometry relative="1" as="geometry" />
        </mxCell>
        <mxCell id="DJ29jIEHS1oXv2itQa2j-7" style="edgeStyle=orthogonalEdgeStyle;rounded=0;orthogonalLoop=1;jettySize=auto;html=1;exitX=1;exitY=0.5;exitDx=0;exitDy=0;entryX=0;entryY=0.5;entryDx=0;entryDy=0;" parent="1" source="DJ29jIEHS1oXv2itQa2j-5" target="DJ29jIEHS1oXv2itQa2j-1" edge="1">
          <mxGeometry relative="1" as="geometry" />
        </mxCell>
        <mxCell id="DJ29jIEHS1oXv2itQa2j-58" style="edgeStyle=orthogonalEdgeStyle;rounded=0;orthogonalLoop=1;jettySize=auto;html=1;exitX=1;exitY=0.75;exitDx=0;exitDy=0;entryX=0.25;entryY=0;entryDx=0;entryDy=0;" parent="1" source="DJ29jIEHS1oXv2itQa2j-5" target="DJ29jIEHS1oXv2itQa2j-53" edge="1">
          <mxGeometry relative="1" as="geometry">
            <mxPoint x="520" y="400" as="targetPoint" />
          </mxGeometry>
        </mxCell>
        <mxCell id="DJ29jIEHS1oXv2itQa2j-59" style="edgeStyle=orthogonalEdgeStyle;rounded=0;orthogonalLoop=1;jettySize=auto;html=1;exitX=0.25;exitY=1;exitDx=0;exitDy=0;entryX=0.75;entryY=0;entryDx=0;entryDy=0;" parent="1" source="DJ29jIEHS1oXv2itQa2j-5" target="DJ29jIEHS1oXv2itQa2j-46" edge="1">
          <mxGeometry relative="1" as="geometry" />
        </mxCell>
        <mxCell id="DJ29jIEHS1oXv2itQa2j-5" value="Swamp M210" style="rounded=1;whiteSpace=wrap;html=1;" parent="1" vertex="1">
          <mxGeometry x="354" y="270" width="120" height="60" as="geometry" />
        </mxCell>
        <mxCell id="DJ29jIEHS1oXv2itQa2j-31" style="edgeStyle=orthogonalEdgeStyle;rounded=0;orthogonalLoop=1;jettySize=auto;html=1;entryX=0;entryY=0;entryDx=0;entryDy=0;" parent="1" source="DJ29jIEHS1oXv2itQa2j-8" target="DJ29jIEHS1oXv2itQa2j-5" edge="1">
          <mxGeometry relative="1" as="geometry" />
        </mxCell>
        <mxCell id="DJ29jIEHS1oXv2itQa2j-8" value="Kit Mic&lt;div&gt;Ch 1-6&lt;/div&gt;" style="html=1;verticalLabelPosition=bottom;align=center;labelBackgroundColor=#ffffff;verticalAlign=top;strokeWidth=2;strokeColor=#0080F0;shadow=0;dashed=0;shape=mxgraph.ios7.icons.microphone;" parent="1" vertex="1">
          <mxGeometry x="207" y="180" width="12" height="30" as="geometry" />
        </mxCell>
        <mxCell id="DJ29jIEHS1oXv2itQa2j-10" value="" style="shape=image;html=1;verticalAlign=top;verticalLabelPosition=bottom;labelBackgroundColor=#ffffff;imageAspect=0;aspect=fixed;image=https://cdn2.iconfinder.com/data/icons/bitsies/128/Headphones-128.png" parent="1" vertex="1">
          <mxGeometry x="40" y="460" width="128" height="128" as="geometry" />
        </mxCell>
        <mxCell id="DJ29jIEHS1oXv2itQa2j-11" value="" style="shape=image;html=1;verticalAlign=top;verticalLabelPosition=bottom;labelBackgroundColor=#ffffff;imageAspect=0;aspect=fixed;image=https://cdn2.iconfinder.com/data/icons/bitsies/128/Headphones-128.png" parent="1" vertex="1">
          <mxGeometry x="200" y="460" width="128" height="128" as="geometry" />
        </mxCell>
        <mxCell id="DJ29jIEHS1oXv2itQa2j-12" value="" style="shape=image;html=1;verticalAlign=top;verticalLabelPosition=bottom;labelBackgroundColor=#ffffff;imageAspect=0;aspect=fixed;image=https://cdn2.iconfinder.com/data/icons/bitsies/128/Headphones-128.png" parent="1" vertex="1">
          <mxGeometry x="360" y="460" width="128" height="128" as="geometry" />
        </mxCell>
        <mxCell id="DJ29jIEHS1oXv2itQa2j-13" value="Dale IEM" style="text;strokeColor=none;align=center;fillColor=none;html=1;verticalAlign=middle;whiteSpace=wrap;rounded=0;" parent="1" vertex="1">
          <mxGeometry x="74" y="590" width="60" height="30" as="geometry" />
        </mxCell>
        <mxCell id="DJ29jIEHS1oXv2itQa2j-14" value="Norbert IEM" style="text;strokeColor=none;align=center;fillColor=none;html=1;verticalAlign=middle;whiteSpace=wrap;rounded=0;" parent="1" vertex="1">
          <mxGeometry x="234" y="590" width="60" height="30" as="geometry" />
        </mxCell>
        <mxCell id="DJ29jIEHS1oXv2itQa2j-16" value="Neave IEM" style="text;strokeColor=none;align=center;fillColor=none;html=1;verticalAlign=middle;whiteSpace=wrap;rounded=0;" parent="1" vertex="1">
          <mxGeometry x="394" y="590" width="60" height="30" as="geometry" />
        </mxCell>
        <mxCell id="DJ29jIEHS1oXv2itQa2j-23" value="SUB 1/2" style="text;strokeColor=none;align=center;fillColor=none;html=1;verticalAlign=middle;whiteSpace=wrap;rounded=0;" parent="1" vertex="1">
          <mxGeometry x="394" y="630" width="60" height="30" as="geometry" />
        </mxCell>
        <mxCell id="DJ29jIEHS1oXv2itQa2j-24" value="FX Send" style="text;strokeColor=none;align=center;fillColor=none;html=1;verticalAlign=middle;whiteSpace=wrap;rounded=0;" parent="1" vertex="1">
          <mxGeometry x="234" y="630" width="60" height="30" as="geometry" />
        </mxCell>
        <mxCell id="DJ29jIEHS1oXv2itQa2j-26" value="AUX Send" style="text;strokeColor=none;align=center;fillColor=none;html=1;verticalAlign=middle;whiteSpace=wrap;rounded=0;" parent="1" vertex="1">
          <mxGeometry x="74" y="630" width="60" height="30" as="geometry" />
        </mxCell>
        <mxCell id="DJ29jIEHS1oXv2itQa2j-27" value="Main L" style="text;strokeColor=none;align=center;fillColor=none;html=1;verticalAlign=middle;whiteSpace=wrap;rounded=0;" parent="1" vertex="1">
          <mxGeometry x="159" y="360" width="60" height="30" as="geometry" />
        </mxCell>
        <mxCell id="DJ29jIEHS1oXv2itQa2j-28" value="Main R" style="text;strokeColor=none;align=center;fillColor=none;html=1;verticalAlign=middle;whiteSpace=wrap;rounded=0;" parent="1" vertex="1">
          <mxGeometry x="615" y="360" width="60" height="30" as="geometry" />
        </mxCell>
        <mxCell id="DJ29jIEHS1oXv2itQa2j-30" style="edgeStyle=orthogonalEdgeStyle;rounded=0;orthogonalLoop=1;jettySize=auto;html=1;exitX=0.08;exitY=0.5;exitDx=0;exitDy=0;exitPerimeter=0;entryX=1;entryY=0;entryDx=0;entryDy=0;" parent="1" source="DJ29jIEHS1oXv2itQa2j-29" target="DJ29jIEHS1oXv2itQa2j-5" edge="1">
          <mxGeometry relative="1" as="geometry" />
        </mxCell>
        <mxCell id="DJ29jIEHS1oXv2itQa2j-29" value="PC&lt;div&gt;ST2&lt;/div&gt;" style="sketch=0;aspect=fixed;pointerEvents=1;shadow=0;dashed=0;html=1;strokeColor=none;labelPosition=center;verticalLabelPosition=bottom;verticalAlign=top;align=center;fillColor=#00188D;shape=mxgraph.azure.laptop" parent="1" vertex="1">
          <mxGeometry x="588" y="180" width="50" height="30" as="geometry" />
        </mxCell>
        <mxCell id="DJ29jIEHS1oXv2itQa2j-32" value="Guitar FX&lt;div&gt;ST 1&lt;/div&gt;" style="sketch=0;pointerEvents=1;shadow=0;dashed=0;html=1;strokeColor=none;fillColor=#005F4B;labelPosition=center;verticalLabelPosition=bottom;verticalAlign=top;align=center;outlineConnect=0;shape=mxgraph.veeam2.audio_file;" parent="1" vertex="1">
          <mxGeometry x="599" y="100" width="28.000000000000004" height="39" as="geometry" />
        </mxCell>
        <mxCell id="DJ29jIEHS1oXv2itQa2j-34" value="" style="edgeStyle=none;orthogonalLoop=1;jettySize=auto;html=1;rounded=0;entryX=0.75;entryY=0;entryDx=0;entryDy=0;" parent="1" source="DJ29jIEHS1oXv2itQa2j-32" target="DJ29jIEHS1oXv2itQa2j-5" edge="1">
          <mxGeometry width="80" relative="1" as="geometry">
            <mxPoint x="464" y="129" as="sourcePoint" />
            <mxPoint x="440" y="129" as="targetPoint" />
            <Array as="points">
              <mxPoint x="444" y="120" />
            </Array>
          </mxGeometry>
        </mxCell>
        <mxCell id="DJ29jIEHS1oXv2itQa2j-37" style="edgeStyle=none;rounded=0;orthogonalLoop=1;jettySize=auto;html=1;exitX=1;exitY=0.5;exitDx=0;exitDy=0;entryX=0.25;entryY=0;entryDx=0;entryDy=0;" parent="1" source="DJ29jIEHS1oXv2itQa2j-36" target="DJ29jIEHS1oXv2itQa2j-5" edge="1">
          <mxGeometry relative="1" as="geometry">
            <Array as="points">
              <mxPoint x="384" y="154" />
            </Array>
          </mxGeometry>
        </mxCell>
        <mxCell id="DJ29jIEHS1oXv2itQa2j-36" value="Bass DI&lt;div&gt;Ch 7&lt;/div&gt;" style="rounded=1;whiteSpace=wrap;html=1;" parent="1" vertex="1">
          <mxGeometry x="300" y="139" width="50" height="29" as="geometry" />
        </mxCell>
        <mxCell id="DJ29jIEHS1oXv2itQa2j-39" style="edgeStyle=none;rounded=0;orthogonalLoop=1;jettySize=auto;html=1;exitX=0.25;exitY=1;exitDx=0;exitDy=0;entryX=0;entryY=0.5;entryDx=0;entryDy=0;" parent="1" source="DJ29jIEHS1oXv2itQa2j-38" target="DJ29jIEHS1oXv2itQa2j-36" edge="1">
          <mxGeometry relative="1" as="geometry">
            <Array as="points">
              <mxPoint x="186" y="154" />
            </Array>
          </mxGeometry>
        </mxCell>
        <mxCell id="DJ29jIEHS1oXv2itQa2j-38" value="Norbert Bass" style="shape=image;html=1;verticalAlign=top;verticalLabelPosition=bottom;labelBackgroundColor=#ffffff;imageAspect=0;aspect=fixed;image=https://cdn0.iconfinder.com/data/icons/icons-unleashed-vol1/128/-guitar.png" parent="1" vertex="1">
          <mxGeometry x="159" y="31" width="108" height="108" as="geometry" />
        </mxCell>
        <mxCell id="DJ29jIEHS1oXv2itQa2j-42" style="edgeStyle=none;rounded=0;orthogonalLoop=1;jettySize=auto;html=1;exitX=0.25;exitY=1;exitDx=0;exitDy=0;" parent="1" source="DJ29jIEHS1oXv2itQa2j-41" target="DJ29jIEHS1oXv2itQa2j-32" edge="1">
          <mxGeometry relative="1" as="geometry">
            <Array as="points">
              <mxPoint x="737" y="120" />
            </Array>
          </mxGeometry>
        </mxCell>
        <mxCell id="DJ29jIEHS1oXv2itQa2j-41" value="Dale Guitar" style="shape=image;html=1;verticalAlign=top;verticalLabelPosition=bottom;labelBackgroundColor=#ffffff;imageAspect=0;aspect=fixed;image=https://cdn0.iconfinder.com/data/icons/icons-unleashed-vol1/128/-guitar.png" parent="1" vertex="1">
          <mxGeometry x="720" y="20" width="68" height="68" as="geometry" />
        </mxCell>
        <mxCell id="DJ29jIEHS1oXv2itQa2j-44" value="" style="edgeStyle=none;orthogonalLoop=1;jettySize=auto;html=1;rounded=0;entryX=0.5;entryY=0;entryDx=0;entryDy=0;" parent="1" target="DJ29jIEHS1oXv2itQa2j-5" edge="1">
          <mxGeometry width="80" relative="1" as="geometry">
            <mxPoint x="414" y="110" as="sourcePoint" />
            <mxPoint x="490" y="150" as="targetPoint" />
            <Array as="points" />
          </mxGeometry>
        </mxCell>
        <mxCell id="DJ29jIEHS1oXv2itQa2j-43" value="Vocal Mic 1&lt;div&gt;Ch 8&lt;/div&gt;" style="html=1;verticalLabelPosition=bottom;align=center;labelBackgroundColor=#ffffff;verticalAlign=top;strokeWidth=2;strokeColor=#0080F0;shadow=0;dashed=0;shape=mxgraph.ios7.icons.microphone;" parent="1" vertex="1">
          <mxGeometry x="408" y="39" width="12" height="30" as="geometry" />
        </mxCell>
        <mxCell id="DJ29jIEHS1oXv2itQa2j-47" value="IEM&#39;S (Future)" style="text;strokeColor=none;align=center;fillColor=none;html=1;verticalAlign=middle;whiteSpace=wrap;rounded=0;" parent="1" vertex="1">
          <mxGeometry x="49" y="430" width="110" height="30" as="geometry" />
        </mxCell>
        <mxCell id="DJ29jIEHS1oXv2itQa2j-49" value="Foldback L" style="strokeColor=#dddddd;shadow=1;strokeWidth=1;rounded=1;absoluteArcSize=1;arcSize=2;labelPosition=center;verticalLabelPosition=middle;align=center;verticalAlign=bottom;spacingLeft=0;fontColor=#999999;fontSize=12;whiteSpace=wrap;spacingBottom=2;html=1;" parent="1" vertex="1">
          <mxGeometry x="529" y="500" width="70" height="85" as="geometry" />
        </mxCell>
        <mxCell id="DJ29jIEHS1oXv2itQa2j-50" value="" style="sketch=0;dashed=0;connectable=0;html=1;fillColor=#757575;strokeColor=none;shape=mxgraph.gcp2.speaker;part=1;" parent="DJ29jIEHS1oXv2itQa2j-49" vertex="1">
          <mxGeometry x="0.5" width="35" height="50" relative="1" as="geometry">
            <mxPoint x="-17.5" y="10" as="offset" />
          </mxGeometry>
        </mxCell>
        <mxCell id="DJ29jIEHS1oXv2itQa2j-51" value="Foldback R" style="strokeColor=#dddddd;shadow=1;strokeWidth=1;rounded=1;absoluteArcSize=1;arcSize=2;labelPosition=center;verticalLabelPosition=middle;align=center;verticalAlign=bottom;spacingLeft=0;fontColor=#999999;fontSize=12;whiteSpace=wrap;spacingBottom=2;html=1;" parent="1" vertex="1">
          <mxGeometry x="700" y="502.5" width="70" height="85" as="geometry" />
        </mxCell>
        <mxCell id="DJ29jIEHS1oXv2itQa2j-52" value="" style="sketch=0;dashed=0;connectable=0;html=1;fillColor=#757575;strokeColor=none;shape=mxgraph.gcp2.speaker;part=1;" parent="DJ29jIEHS1oXv2itQa2j-51" vertex="1">
          <mxGeometry x="0.5" width="35" height="50" relative="1" as="geometry">
            <mxPoint x="-17.5" y="10" as="offset" />
          </mxGeometry>
        </mxCell>
        <mxCell id="DJ29jIEHS1oXv2itQa2j-54" value="Foldbacks (Future)" style="text;strokeColor=none;align=center;fillColor=none;html=1;verticalAlign=middle;whiteSpace=wrap;rounded=0;" parent="1" vertex="1">
          <mxGeometry x="529" y="430" width="120" height="30" as="geometry" />
        </mxCell>
        <mxCell id="DJ29jIEHS1oXv2itQa2j-55" value="Sub 1/2" style="text;strokeColor=none;align=center;fillColor=none;html=1;verticalAlign=middle;whiteSpace=wrap;rounded=0;" parent="1" vertex="1">
          <mxGeometry x="620" y="527.5" width="60" height="30" as="geometry" />
        </mxCell>
      </root>
    </mxGraphModel>
  </diagram>
</mxfile>
